<svg xmlns="http://www.w3.org/2000/svg" width="512" height="512" viewBox="0 0 512 512">
  <defs>
    <linearGradient id="brandBase" x1="76.8" y1="0" x2="435.2" y2="512" gradientUnits="userSpaceOnUse">
      <stop offset="0" stop-color="#fffdf9"/>
      <stop offset="0.1" stop-color="#fff8f0"/>
      <stop offset="0.22" stop-color="#fceee0"/>
      <stop offset="0.36" stop-color="#f8e4d4"/>
      <stop offset="0.48" stop-color="#f6ece4"/>
      <stop offset="0.6" stop-color="#f0e4dc"/>
      <stop offset="0.72" stop-color="#f5eef5"/>
      <stop offset="0.86" stop-color="#eee8f2"/>
      <stop offset="1" stop-color="#e8eef8"/>
    </linearGradient>
    <radialGradient id="mesh1" cx="102.4" cy="204.8" r="256" gradientUnits="userSpaceOnUse">
      <stop offset="0" stop-color="#ecb090" stop-opacity="0.34"/>
      <stop offset="1" stop-color="#ecb090" stop-opacity="0"/>
    </radialGradient>
    <radialGradient id="mesh2" cx="399.36" cy="92.16" r="296.96" gradientUnits="userSpaceOnUse">
      <stop offset="0" stop-color="#fceee0" stop-opacity="0.44"/>
      <stop offset="1" stop-color="#fceee0" stop-opacity="0"/>
    </radialGradient>
    <radialGradient id="mesh3" cx="450.56" cy="368.64" r="225.28" gradientUnits="userSpaceOnUse">
      <stop offset="0" stop-color="#9eb0d4" stop-opacity="0.22"/>
      <stop offset="1" stop-color="#9eb0d4" stop-opacity="0"/>
    </radialGradient>
    <radialGradient id="mesh4" cx="215.04" cy="419.84" r="266.24" gradientUnits="userSpaceOnUse">
      <stop offset="0" stop-color="#c0b0d8" stop-opacity="0.16"/>
      <stop offset="1" stop-color="#c0b0d8" stop-opacity="0"/>
    </radialGradient>
    <clipPath id="round"><rect width="512" height="512" rx="104" ry="104"/></clipPath>
  </defs>

  <g clip-path="url(#round)">
    <rect width="512" height="512" fill="url(#brandBase)"/>
    <rect width="512" height="512" fill="url(#mesh2)"/>
    <rect width="512" height="512" fill="url(#mesh1)"/>
    <rect width="512" height="512" fill="url(#mesh3)"/>
    <rect width="512" height="512" fill="url(#mesh4)"/>
    <g transform="translate(256 256) scale(21) translate(-12 -12)" fill="none" stroke="#1a1a2e" stroke-width="1.6" stroke-linecap="round" stroke-linejoin="round">
      <circle cx="12" cy="12" r="3"/>
      <path d="M12 16.5A4.5 4.5 0 1 1 7.5 12 4.5 4.5 0 1 1 12 7.5a4.5 4.5 0 1 1 4.5 4.5 4.5 4.5 0 1 1-4.5 4.5"/>
      <path d="M12 7.5V9"/>
      <path d="M7.5 12H9"/>
      <path d="M16.5 12H15"/>
      <path d="M12 16.5V15"/>
      <path d="m8 8 1.88 1.88"/>
      <path d="M14.12 9.88 16 8"/>
      <path d="m8 16 1.88-1.88"/>
      <path d="M14.12 14.12 16 16"/>
    </g>
  </g>
</svg>
