<?xml version="1.0" encoding="UTF-8"?>
<svg xmlns="http://www.w3.org/2000/svg" width="1024" height="1024" viewBox="0 0 1024 1024">
  <defs>
    <linearGradient id="brandBase" x1="153.6" y1="0" x2="870.4" y2="1024" gradientUnits="userSpaceOnUse">
      <stop offset="0" stop-color="#fffdf9"/>
      <stop offset="0.1" stop-color="#fff8f0"/>
      <stop offset="0.22" stop-color="#fceee0"/>
      <stop offset="0.36" stop-color="#f8e4d4"/>
      <stop offset="0.48" stop-color="#f6ece4"/>
      <stop offset="0.6" stop-color="#f0e4dc"/>
      <stop offset="0.72" stop-color="#f5eef5"/>
      <stop offset="0.86" stop-color="#eee8f2"/>
      <stop offset="1" stop-color="#e8eef8"/>
    </linearGradient>

    <radialGradient id="mesh0" cx="798.72" cy="184.32" r="593.92" gradientUnits="userSpaceOnUse">
      <stop offset="0" stop-color="#fceee0" stop-opacity="0.42"/>
      <stop offset="0.38" stop-color="#fceee0" stop-opacity="0.231"/>
      <stop offset="0.72" stop-color="#fceee0" stop-opacity="0.0756"/>
      <stop offset="1" stop-color="#fceee0" stop-opacity="0"/>
    </radialGradient>
    <radialGradient id="mesh1" cx="204.8" cy="409.6" r="512" gradientUnits="userSpaceOnUse">
      <stop offset="0" stop-color="#ecb090" stop-opacity="0.32"/>
      <stop offset="0.38" stop-color="#ecb090" stop-opacity="0.176"/>
      <stop offset="0.72" stop-color="#ecb090" stop-opacity="0.0576"/>
      <stop offset="1" stop-color="#ecb090" stop-opacity="0"/>
    </radialGradient>
    <radialGradient id="mesh2" cx="737.28" cy="491.52" r="389.12" gradientUnits="userSpaceOnUse">
      <stop offset="0" stop-color="#f0dcc0" stop-opacity="0.22"/>
      <stop offset="0.38" stop-color="#f0dcc0" stop-opacity="0.121"/>
      <stop offset="0.72" stop-color="#f0dcc0" stop-opacity="0.0396"/>
      <stop offset="1" stop-color="#f0dcc0" stop-opacity="0"/>
    </radialGradient>
    <radialGradient id="mesh3" cx="901.12" cy="737.28" r="450.56" gradientUnits="userSpaceOnUse">
      <stop offset="0" stop-color="#9eb0d4" stop-opacity="0.2"/>
      <stop offset="0.38" stop-color="#9eb0d4" stop-opacity="0.11"/>
      <stop offset="0.72" stop-color="#9eb0d4" stop-opacity="0.036"/>
      <stop offset="1" stop-color="#9eb0d4" stop-opacity="0"/>
    </radialGradient>
    <radialGradient id="mesh4" cx="430.08" cy="839.68" r="532.48" gradientUnits="userSpaceOnUse">
      <stop offset="0" stop-color="#c0b0d8" stop-opacity="0.14"/>
      <stop offset="0.38" stop-color="#c0b0d8" stop-opacity="0.077"/>
      <stop offset="0.72" stop-color="#c0b0d8" stop-opacity="0.0252"/>
      <stop offset="1" stop-color="#c0b0d8" stop-opacity="0"/>
    </radialGradient>

    <linearGradient id="vignette" x1="512" y1="0" x2="512" y2="1024" gradientUnits="userSpaceOnUse">
      <stop offset="0" stop-color="#1a1a2e" stop-opacity="0.025"/>
      <stop offset="0.52" stop-color="#1a1a2e" stop-opacity="0"/>
      <stop offset="1" stop-color="#1a1a2e" stop-opacity="0.02"/>
    </linearGradient>
  </defs>

  <rect width="1024" height="1024" fill="url(#brandBase)"/>
  <ellipse cx="798.72" cy="184.32" rx="593.92" ry="512" fill="url(#mesh0)"/>
  <ellipse cx="204.8" cy="409.6" rx="512" ry="471.04" fill="url(#mesh1)"/>
  <ellipse cx="737.28" cy="491.52" rx="389.12" ry="348.16" fill="url(#mesh2)"/>
  <ellipse cx="901.12" cy="737.28" rx="450.56" ry="409.6" fill="url(#mesh3)"/>
  <ellipse cx="430.08" cy="839.68" rx="532.48" ry="389.12" fill="url(#mesh4)"/>
  <rect width="1024" height="1024" fill="url(#vignette)"/>

  <g transform="translate(512 512) scale(30) translate(-12 -12)" fill="none" stroke="#1a1a2e" stroke-width="1.5" stroke-linecap="round" stroke-linejoin="round">
    <circle cx="12" cy="12" r="3"/>
    <path d="M12 16.5A4.5 4.5 0 1 1 7.5 12 4.5 4.5 0 1 1 12 7.5a4.5 4.5 0 1 1 4.5 4.5 4.5 4.5 0 1 1-4.5 4.5"/>
    <path d="M12 7.5V9"/>
    <path d="M7.5 12H9"/>
    <path d="M16.5 12H15"/>
    <path d="M12 16.5V15"/>
    <path d="m8 8 1.88 1.88"/>
    <path d="M14.12 9.88 16 8"/>
    <path d="m8 16 1.88-1.88"/>
    <path d="M14.12 14.12 16 16"/>
  </g>
</svg>
